<svg width="210" height="31" viewBox="0 0 210 31" fill="none" xmlns="http://www.w3.org/2000/svg">
<path d="M27.7154 30H22.1295V10C22.1295 9.6094 22.0513 9.2448 21.8951 8.9062C21.7519 8.5677 21.55 8.2747 21.2896 8.0273C21.0422 7.7669 20.7493 7.5651 20.4107 7.4219C20.0722 7.2786 19.7076 7.207 19.317 7.207C18.9263 7.207 18.5618 7.2786 18.2232 7.4219C17.8847 7.5651 17.5851 7.7669 17.3247 8.0273C17.0773 8.2747 16.8821 8.5677 16.7388 8.9062C16.5956 9.2448 16.5239 9.6094 16.5239 10V30H10.9185V10C10.9185 9.6094 10.8468 9.2448 10.7036 8.9062C10.5604 8.5677 10.3586 8.2747 10.0982 8.0273C9.85075 7.7669 9.55775 7.5651 9.21925 7.4219C8.88075 7.2786 8.51615 7.207 8.12555 7.207C7.73485 7.207 7.37025 7.2786 7.03175 7.4219C6.69325 7.5651 6.39375 7.7669 6.13335 8.0273C5.88595 8.2747 5.69065 8.5677 5.54735 8.9062C5.40415 9.2448 5.33255 9.6094 5.33255 10V30H-0.272949V10C-0.272949 8.8411 -0.0580493 7.7539 0.371651 6.7383C0.814351 5.7096 1.41325 4.81771 2.16845 4.0625C2.93675 3.29427 3.82865 2.69531 4.84425 2.26562C5.87295 1.82292 6.96665 1.60156 8.12555 1.60156C9.16715 1.60156 10.1698 1.79036 11.1334 2.16797C12.0969 2.53255 12.9628 3.06641 13.731 3.76953C14.4993 3.06641 15.3586 2.53255 16.3092 2.16797C17.2727 1.79036 18.2753 1.60156 19.317 1.60156C20.4758 1.60156 21.5631 1.82292 22.5787 2.26562C23.6073 2.69531 24.4993 3.29427 25.2545 4.0625C26.0227 4.81771 26.6217 5.7096 27.0513 6.7383C27.494 7.7539 27.7154 8.8411 27.7154 10V30ZM52.988 30H51.6989L49.6287 27.1289C49.1209 27.5846 48.5804 28.0143 48.0075 28.418C47.4476 28.8086 46.8552 29.1536 46.2302 29.4531C45.6052 29.7396 44.9607 29.9674 44.2966 30.1367C43.6456 30.306 42.9815 30.3906 42.3045 30.3906C40.8331 30.3906 39.4463 30.1432 38.1442 29.6484C36.8551 29.1536 35.7223 28.4375 34.7458 27.5C33.7822 26.5495 33.0206 25.3906 32.4607 24.0234C31.9008 22.6562 31.6208 21.1003 31.6208 19.3555C31.6208 17.7279 31.9008 16.237 32.4607 14.8828C33.0206 13.5156 33.7822 12.3438 34.7458 11.3672C35.7223 10.3906 36.8551 9.6354 38.1442 9.1016C39.4463 8.5547 40.8331 8.2812 42.3045 8.2812C42.9815 8.2812 43.6521 8.3659 44.3162 8.5352C44.9802 8.7044 45.6248 8.9388 46.2498 9.2383C46.8748 9.5378 47.4672 9.8893 48.0271 10.293C48.6 10.6966 49.1339 11.1328 49.6287 11.6016L51.6989 9.1211H52.988V30ZM47.617 19.3555C47.617 18.6263 47.4737 17.9232 47.1873 17.2461C46.9138 16.556 46.5362 15.9505 46.0545 15.4297C45.5727 14.8958 45.0063 14.4727 44.3552 14.1602C43.7172 13.8346 43.0336 13.6719 42.3045 13.6719C41.5753 13.6719 40.8852 13.7956 40.2341 14.043C39.5961 14.2904 39.0362 14.6549 38.5545 15.1367C38.0857 15.6185 37.7146 16.2174 37.4412 16.9336C37.1677 17.6367 37.0309 18.444 37.0309 19.3555C37.0309 20.2669 37.1677 21.0807 37.4412 21.7969C37.7146 22.5 38.0857 23.0924 38.5545 23.5742C39.0362 24.056 39.5961 24.4206 40.2341 24.668C40.8852 24.9154 41.5753 25.0391 42.3045 25.0391C43.0336 25.0391 43.7172 24.8828 44.3552 24.5703C45.0063 24.2448 45.5727 23.8216 46.0545 23.3008C46.5362 22.7669 46.9138 22.1615 47.1873 21.4844C47.4737 20.7943 47.617 20.0846 47.617 19.3555ZM68.3584 30C67.0693 30 65.8584 29.7591 64.7256 29.2773C63.5927 28.7826 62.5965 28.112 61.7372 27.2656C60.8908 26.4062 60.2203 25.4102 59.7256 24.2773C59.2438 23.1445 59.0028 21.9336 59.0028 20.6445V14.4336H56.4051V9.1211H59.0028V0.761719H64.3154V9.1211H72.4012V14.4336H64.3154V20.6445C64.3154 21.2044 64.4196 21.7318 64.6279 22.2266C64.8362 22.7083 65.1226 23.1315 65.4872 23.4961C65.8518 23.8607 66.2814 24.1536 66.7762 24.375C67.271 24.5833 67.7985 24.6875 68.3584 24.6875H72.4012V30H68.3584ZM94.4899 13.2422L90.584 17.168C90.389 16.6211 90.1219 16.1328 89.7829 15.7031C89.4449 15.2604 89.061 14.8893 88.631 14.5898C88.214 14.2904 87.7589 14.0625 87.2639 13.9062C86.7689 13.75 86.2609 13.6719 85.7399 13.6719C85.0109 13.6719 84.3209 13.8216 83.67 14.1211C83.032 14.4206 82.4722 14.8438 81.9904 15.3906C81.5217 15.9245 81.1505 16.5625 80.877 17.3047C80.6036 18.0469 80.4669 18.8672 80.4669 19.7656C80.4669 20.4948 80.6036 21.1784 80.877 21.8164C81.1505 22.4544 81.5217 23.0143 81.9904 23.4961C82.4722 23.9779 83.032 24.3555 83.67 24.6289C84.3209 24.9023 85.0109 25.0391 85.7399 25.0391C86.2609 25.0391 86.763 24.9674 87.244 24.8242C87.726 24.681 88.1749 24.4792 88.5919 24.2188C89.0219 23.9453 89.3989 23.6198 89.7249 23.2422C90.0629 22.8516 90.337 22.4219 90.545 21.9531L94.4509 25.8789C93.9569 26.582 93.384 27.2135 92.733 27.7734C92.095 28.3333 91.3979 28.8086 90.6429 29.1992C89.9009 29.5898 89.1129 29.8828 88.2789 30.0781C87.4589 30.2865 86.6129 30.3906 85.7399 30.3906C84.2689 30.3906 82.8823 30.1172 81.5802 29.5703C80.2912 29.0104 79.1583 28.2487 78.1817 27.2852C77.2182 26.3216 76.4565 25.1953 75.8967 23.9062C75.3368 22.6172 75.0567 21.237 75.0567 19.7656C75.0567 18.1641 75.3368 16.6667 75.8967 15.2734C76.4565 13.8802 77.2182 12.6693 78.1817 11.6406C79.1583 10.599 80.2912 9.7786 81.5802 9.1797C82.8823 8.5807 84.2689 8.2812 85.7399 8.2812C86.6129 8.2812 87.466 8.3919 88.299 8.6133C89.145 8.8346 89.9459 9.1602 90.7009 9.5898C91.4699 10.0065 92.1729 10.5208 92.8109 11.1328C93.4619 11.7448 94.0219 12.4479 94.4899 13.2422ZM103.24 30H97.9079V0.761719H103.24V10C103.878 9.5182 104.535 9.1797 105.212 8.9844C105.889 8.776 106.579 8.6719 107.283 8.6719C108.572 8.6719 109.783 8.9193 110.915 9.4141C112.048 9.8958 113.031 10.5664 113.865 11.4258C114.711 12.2721 115.375 13.2682 115.857 14.4141C116.352 15.5469 116.599 16.7578 116.599 18.0469V30H111.228V18.0469H111.267C111.267 17.5 111.163 16.9857 110.954 16.5039C110.746 16.0091 110.46 15.5794 110.095 15.2148C109.731 14.8503 109.307 14.5638 108.826 14.3555C108.344 14.1471 107.829 14.043 107.283 14.043C106.723 14.043 106.195 14.1471 105.701 14.3555C105.206 14.5638 104.776 14.8503 104.411 15.2148C104.047 15.5794 103.76 16.0091 103.552 16.5039C103.344 16.9857 103.24 17.5 103.24 18.0469V30ZM143.707 30C142.418 30 141.207 29.7591 140.074 29.2773C138.941 28.7826 137.945 28.112 137.086 27.2656C136.239 26.4062 135.569 25.4102 135.074 24.2773C134.592 23.1445 134.351 21.9336 134.351 20.6445V14.4336H131.754V9.1211H134.351V0.761719H139.664V9.1211H147.75V14.4336H139.664V20.6445C139.664 21.2044 139.768 21.7318 139.976 22.2266C140.185 22.7083 140.471 23.1315 140.836 23.4961C141.2 23.8607 141.63 24.1536 142.125 24.375C142.62 24.5833 143.147 24.6875 143.707 24.6875H147.75V30H143.707ZM159.878 24.8828C160.086 24.9479 160.295 24.9935 160.503 25.0195C160.711 25.0326 160.92 25.0391 161.128 25.0391C161.649 25.0391 162.15 24.9674 162.632 24.8242C163.114 24.681 163.563 24.4792 163.979 24.2188C164.409 23.9453 164.787 23.6198 165.112 23.2422C165.451 22.8516 165.724 22.4219 165.933 21.9531L169.839 25.8789C169.344 26.582 168.771 27.2135 168.12 27.7734C167.482 28.3333 166.785 28.8086 166.03 29.1992C165.288 29.5898 164.5 29.8828 163.667 30.0781C162.847 30.2865 162 30.3906 161.128 30.3906C159.657 30.3906 158.27 30.1172 156.968 29.5703C155.679 29.0234 154.546 28.2617 153.569 27.2852C152.606 26.3086 151.844 25.1497 151.284 23.8086C150.724 22.4544 150.444 20.9701 150.444 19.3555C150.444 17.7018 150.724 16.1914 151.284 14.8242C151.844 13.457 152.606 12.2917 153.569 11.3281C154.546 10.3646 155.679 9.6159 156.968 9.082C158.27 8.5482 159.657 8.2812 161.128 8.2812C162 8.2812 162.853 8.3854 163.686 8.5938C164.52 8.8021 165.308 9.1016 166.05 9.4922C166.805 9.8828 167.508 10.3646 168.159 10.9375C168.81 11.4974 169.383 12.1289 169.878 12.832L159.878 24.8828ZM162.612 13.8867C162.365 13.7956 162.117 13.737 161.87 13.7109C161.636 13.6849 161.388 13.6719 161.128 13.6719C160.399 13.6719 159.709 13.8086 159.058 14.082C158.42 14.3424 157.86 14.7201 157.378 15.2148C156.909 15.7096 156.538 16.3086 156.265 17.0117C155.991 17.7018 155.854 18.4831 155.854 19.3555C155.854 19.5508 155.861 19.7721 155.874 20.0195C155.9 20.2669 155.933 20.5208 155.972 20.7812C156.024 21.0286 156.082 21.2695 156.147 21.5039C156.213 21.7383 156.297 21.9466 156.401 22.1289L162.612 13.8867ZM184.858 30H172.67V24.6875H184.858C185.222 24.6875 185.535 24.5573 185.795 24.2969C186.055 24.0365 186.186 23.724 186.186 23.3594C186.186 22.9818 186.055 22.7344 185.795 22.6172C185.535 22.5 185.222 22.4414 184.858 22.4414H179.311C178.386 22.4414 177.52 22.2656 176.713 21.9141C175.906 21.5625 175.203 21.0872 174.604 20.4883C174.005 19.8763 173.529 19.1667 173.178 18.3594C172.839 17.5521 172.67 16.6862 172.67 15.7617C172.67 14.8372 172.839 13.9714 173.178 13.1641C173.529 12.3568 174.005 11.6536 174.604 11.0547C175.203 10.4557 175.906 9.987 176.713 9.6484C177.52 9.2969 178.386 9.1211 179.311 9.1211H190.111V14.4336H179.311C178.946 14.4336 178.634 14.5638 178.373 14.8242C178.113 15.0846 177.983 15.3971 177.983 15.7617C177.983 16.1393 178.113 16.4648 178.373 16.7383C178.634 16.9987 178.946 17.1289 179.311 17.1289H184.858C185.769 17.1289 186.628 17.2852 187.436 17.5977C188.243 17.8971 188.946 18.3203 189.545 18.8672C190.144 19.4141 190.619 20.0716 190.971 20.8398C191.322 21.6081 191.498 22.4479 191.498 23.3594C191.498 24.2839 191.322 25.1497 190.971 25.957C190.619 26.7513 190.144 27.4544 189.545 28.0664C188.946 28.6654 188.243 29.1406 187.436 29.4922C186.628 29.8307 185.769 30 184.858 30ZM205.638 30C204.349 30 203.138 29.7591 202.005 29.2773C200.872 28.7826 199.876 28.112 199.017 27.2656C198.171 26.4062 197.5 25.4102 197.005 24.2773C196.523 23.1445 196.283 21.9336 196.283 20.6445V14.4336H193.685V9.1211H196.283V0.761719H201.595V9.1211H209.681V14.4336H201.595V20.6445C201.595 21.2044 201.699 21.7318 201.908 22.2266C202.116 22.7083 202.402 23.1315 202.767 23.4961C203.132 23.8607 203.561 24.1536 204.056 24.375C204.551 24.5833 205.078 24.6875 205.638 24.6875H209.681V30H205.638Z" fill="#A52B60"/>
</svg>
