<svg width="304" height="44" viewBox="0 0 304 44" fill="none" xmlns="http://www.w3.org/2000/svg">
<rect x="0.854248" y="0.320923" width="64.2808" height="43.1575" rx="8" fill="black"/>
<rect x="1.35425" y="0.820923" width="301.933" height="41.9622" rx="7.5" stroke="black"/>
<path d="M22.8962 27.0529C22.6816 27.2063 22.3902 27.3443 22.0222 27.4669C21.6849 27.5896 21.3016 27.6509 20.8722 27.6509C20.3816 27.6509 19.9369 27.5743 19.5382 27.4209C19.1702 27.2676 18.9096 27.0223 18.7562 26.6849C17.1309 23.2503 15.7049 20.1069 14.4782 17.2549C13.2822 14.4029 12.3162 12.0416 11.5802 10.1709H11.3962C11.3042 12.4709 11.1969 14.6176 11.0742 16.6109C10.9822 18.6043 10.8749 20.5363 10.7522 22.4069C10.6296 24.2469 10.5069 26.1483 10.3842 28.1109C10.2922 30.0429 10.1696 32.1129 10.0162 34.3209C9.83222 34.3823 9.58689 34.4436 9.28022 34.5049C9.00422 34.5663 8.69755 34.5969 8.36022 34.5969C7.68555 34.5969 7.21022 34.4589 6.93422 34.1829C6.65822 33.8763 6.52022 33.4776 6.52022 32.9869C6.52022 32.6189 6.55089 31.7756 6.61222 30.4569C6.70422 29.1076 6.79622 27.4669 6.88822 25.5349C7.01089 23.6029 7.14889 21.5483 7.30222 19.3709C7.45555 17.1629 7.60889 15.0009 7.76222 12.8849C7.94622 10.7383 8.11489 8.80626 8.26822 7.08892C8.51355 6.87425 8.86622 6.67492 9.32622 6.49092C9.78622 6.30692 10.3076 6.21492 10.8902 6.21492C11.5956 6.21492 12.1936 6.35292 12.6842 6.62892C13.1749 6.90492 13.5582 7.33425 13.8342 7.91692C14.6316 9.48092 15.4289 11.1829 16.2262 13.0229C17.0236 14.8629 17.8056 16.7029 18.5722 18.5429C19.3389 20.3829 20.0749 22.1156 20.7802 23.7409H20.9642C22.3136 20.4903 23.6476 17.3623 24.9662 14.3569C26.3156 11.3516 27.4502 8.79092 28.3702 6.67492C28.6462 6.52159 28.9989 6.41426 29.4282 6.35292C29.8576 6.26092 30.2562 6.21492 30.6242 6.21492C31.3296 6.21492 31.8816 6.33759 32.2802 6.58292C32.7096 6.79759 32.9856 7.16559 33.1082 7.68692C33.2309 8.20825 33.3689 9.09759 33.5222 10.3549C33.6756 11.6123 33.8289 13.0996 33.9822 14.8169C34.1356 16.5036 34.2736 18.2823 34.3962 20.1529C34.5496 22.0236 34.6876 23.8636 34.8102 25.6729C34.9329 27.4823 35.0402 29.1229 35.1322 30.5949C35.2549 32.0363 35.3316 33.1863 35.3622 34.0449C35.0862 34.2289 34.7949 34.3669 34.4882 34.4589C34.1816 34.5509 33.8289 34.5969 33.4302 34.5969C32.9702 34.5969 32.5562 34.4896 32.1882 34.2749C31.8509 34.0296 31.6516 33.6003 31.5902 32.9869C31.4062 30.0123 31.2222 27.0836 31.0382 24.2009C30.8849 21.2876 30.7469 18.6196 30.6242 16.1969C30.5016 13.7743 30.3942 11.7963 30.3022 10.2629H30.1182C29.4436 11.9496 28.5236 14.1269 27.3582 16.7949C26.1929 19.4323 24.7056 22.8516 22.8962 27.0529ZM51.031 9.52692L50.801 6.35292H61.519C61.611 6.47559 61.703 6.67492 61.795 6.95092C61.887 7.22692 61.933 7.51825 61.933 7.82492C61.933 8.31559 61.8103 8.72959 61.565 9.06692C61.3196 9.37359 60.967 9.52692 60.507 9.52692H51.031ZM51.123 6.35292L51.353 9.52692H40.589C40.497 9.37359 40.405 9.15892 40.313 8.88292C40.221 8.60692 40.175 8.31559 40.175 8.00892C40.175 7.48759 40.2976 7.08892 40.543 6.81292C40.7883 6.50625 41.141 6.35292 41.601 6.35292H51.123ZM49.191 8.28492H52.917V34.2289C52.7636 34.2903 52.5183 34.3516 52.181 34.4129C51.8743 34.5049 51.5523 34.5509 51.215 34.5509C50.5403 34.5509 50.0343 34.4129 49.697 34.1369C49.3596 33.8609 49.191 33.4316 49.191 32.8489V8.28492Z" fill="white"/>
<path d="M110.402 35.9718H104.816V15.9718C104.816 15.5812 104.738 15.2166 104.581 14.8781C104.438 14.5395 104.236 14.2465 103.976 13.9991C103.729 13.7387 103.436 13.5369 103.097 13.3937C102.759 13.2504 102.394 13.1788 102.003 13.1788C101.613 13.1788 101.248 13.2504 100.91 13.3937C100.571 13.5369 100.272 13.7387 100.011 13.9991C99.7637 14.2465 99.5684 14.5395 99.4252 14.8781C99.282 15.2166 99.2104 15.5812 99.2104 15.9718V35.9718H93.6049V15.9718C93.6049 15.5812 93.5333 15.2166 93.39 14.8781C93.2468 14.5395 93.045 14.2465 92.7846 13.9991C92.5372 13.7387 92.2442 13.5369 91.9057 13.3937C91.5671 13.2504 91.2025 13.1788 90.8119 13.1788C90.4213 13.1788 90.0567 13.2504 89.7182 13.3937C89.3796 13.5369 89.0801 13.7387 88.8197 13.9991C88.5723 14.2465 88.377 14.5395 88.2338 14.8781C88.0906 15.2166 88.0189 15.5812 88.0189 15.9718V35.9718H82.4135V15.9718C82.4135 14.8129 82.6283 13.7257 83.058 12.7101C83.5007 11.6814 84.0997 10.7895 84.8549 10.0343C85.6231 9.26607 86.515 8.66711 87.5307 8.23743C88.5593 7.79472 89.6531 7.57336 90.8119 7.57336C91.8536 7.57336 92.8562 7.76217 93.8197 8.13977C94.7833 8.50435 95.6492 9.03821 96.4174 9.74133C97.1856 9.03821 98.045 8.50435 98.9955 8.13977C99.959 7.76217 100.962 7.57336 102.003 7.57336C103.162 7.57336 104.249 7.79472 105.265 8.23743C106.294 8.66711 107.186 9.26607 107.941 10.0343C108.709 10.7895 109.308 11.6814 109.738 12.7101C110.18 13.7257 110.402 14.8129 110.402 15.9718V35.9718ZM135.674 35.9718H134.385L132.315 33.1007C131.807 33.5564 131.267 33.9861 130.694 34.3898C130.134 34.7804 129.542 35.1254 128.917 35.4249C128.292 35.7114 127.647 35.9392 126.983 36.1085C126.332 36.2778 125.668 36.3624 124.991 36.3624C123.519 36.3624 122.133 36.115 120.831 35.6202C119.542 35.1254 118.409 34.4093 117.432 33.4718C116.469 32.5213 115.707 31.3624 115.147 29.9952C114.587 28.6281 114.307 27.0721 114.307 25.3273C114.307 23.6997 114.587 22.2088 115.147 20.8546C115.707 19.4874 116.469 18.3156 117.432 17.339C118.409 16.3624 119.542 15.6072 120.831 15.0734C122.133 14.5265 123.519 14.2531 124.991 14.2531C125.668 14.2531 126.338 14.3377 127.003 14.507C127.667 14.6762 128.311 14.9106 128.936 15.2101C129.561 15.5096 130.154 15.8611 130.713 16.2648C131.286 16.6684 131.82 17.1046 132.315 17.5734L134.385 15.0929H135.674V35.9718ZM130.303 25.3273C130.303 24.5981 130.16 23.895 129.874 23.2179C129.6 22.5278 129.223 21.9223 128.741 21.4015C128.259 20.8676 127.693 20.4445 127.042 20.132C126.404 19.8064 125.72 19.6437 124.991 19.6437C124.262 19.6437 123.572 19.7674 122.921 20.0148C122.282 20.2622 121.723 20.6267 121.241 21.1085C120.772 21.5903 120.401 22.1892 120.128 22.9054C119.854 23.6085 119.717 24.4158 119.717 25.3273C119.717 26.2387 119.854 27.0525 120.128 27.7687C120.401 28.4718 120.772 29.0642 121.241 29.546C121.723 30.0278 122.282 30.3924 122.921 30.6398C123.572 30.8872 124.262 31.0109 124.991 31.0109C125.72 31.0109 126.404 30.8546 127.042 30.5421C127.693 30.2166 128.259 29.7934 128.741 29.2726C129.223 28.7387 129.6 28.1333 129.874 27.4562C130.16 26.7661 130.303 26.0564 130.303 25.3273ZM151.045 35.9718C149.756 35.9718 148.545 35.7309 147.412 35.2491C146.279 34.7544 145.283 34.0838 144.424 33.2374C143.577 32.3781 142.907 31.382 142.412 30.2491C141.93 29.1163 141.689 27.9054 141.689 26.6163V20.4054H139.092V15.0929H141.689V6.73352H147.002V15.0929H155.088V20.4054H147.002V26.6163C147.002 27.1762 147.106 27.7036 147.314 28.1984C147.523 28.6801 147.809 29.1033 148.174 29.4679C148.538 29.8325 148.968 30.1254 149.463 30.3468C149.957 30.5551 150.485 30.6593 151.045 30.6593H155.088V35.9718H151.045ZM177.177 19.214L173.271 23.1398C173.075 22.5929 172.808 22.1046 172.47 21.6749C172.131 21.2322 171.747 20.8611 171.317 20.5616C170.901 20.2622 170.445 20.0343 169.95 19.8781C169.455 19.7218 168.948 19.6437 168.427 19.6437C167.698 19.6437 167.007 19.7934 166.356 20.0929C165.718 20.3924 165.159 20.8156 164.677 21.3624C164.208 21.8963 163.837 22.5343 163.563 23.2765C163.29 24.0187 163.153 24.839 163.153 25.7374C163.153 26.4666 163.29 27.1502 163.563 27.7882C163.837 28.4262 164.208 28.9861 164.677 29.4679C165.159 29.9497 165.718 30.3273 166.356 30.6007C167.007 30.8741 167.698 31.0109 168.427 31.0109C168.948 31.0109 169.449 30.9392 169.931 30.796C170.412 30.6528 170.862 30.451 171.278 30.1906C171.708 29.9171 172.086 29.5916 172.411 29.214C172.75 28.8234 173.023 28.3937 173.231 27.9249L177.138 31.8507C176.643 32.5538 176.07 33.1853 175.419 33.7452C174.781 34.3051 174.084 34.7804 173.329 35.171C172.587 35.5616 171.799 35.8546 170.966 36.0499C170.146 36.2583 169.299 36.3624 168.427 36.3624C166.955 36.3624 165.569 36.089 164.267 35.5421C162.978 34.9822 161.845 34.2205 160.868 33.257C159.905 32.2934 159.143 31.1671 158.583 29.8781C158.023 28.589 157.743 27.2088 157.743 25.7374C157.743 24.1359 158.023 22.6385 158.583 21.2452C159.143 19.852 159.905 18.6411 160.868 17.6124C161.845 16.5708 162.978 15.7504 164.267 15.1515C165.569 14.5525 166.955 14.2531 168.427 14.2531C169.299 14.2531 170.152 14.3637 170.985 14.5851C171.832 14.8064 172.632 15.132 173.388 15.5616C174.156 15.9783 174.859 16.4926 175.497 17.1046C176.148 17.7166 176.708 18.4197 177.177 19.214ZM185.926 35.9718H180.594V6.73352H185.926V15.9718C186.564 15.49 187.222 15.1515 187.899 14.9562C188.576 14.7478 189.266 14.6437 189.969 14.6437C191.258 14.6437 192.469 14.8911 193.602 15.3859C194.735 15.8676 195.718 16.5382 196.551 17.3976C197.397 18.2439 198.061 19.24 198.543 20.3859C199.038 21.5187 199.285 22.7296 199.285 24.0187V35.9718H193.914V24.0187H193.953C193.953 23.4718 193.849 22.9575 193.641 22.4757C193.432 21.9809 193.146 21.5512 192.781 21.1866C192.417 20.8221 191.994 20.5356 191.512 20.3273C191.03 20.1189 190.516 20.0148 189.969 20.0148C189.409 20.0148 188.882 20.1189 188.387 20.3273C187.892 20.5356 187.462 20.8221 187.098 21.1866C186.733 21.5512 186.447 21.9809 186.238 22.4757C186.03 22.9575 185.926 23.4718 185.926 24.0187V35.9718ZM226.393 35.9718C225.104 35.9718 223.893 35.7309 222.76 35.2491C221.628 34.7544 220.631 34.0838 219.772 33.2374C218.926 32.3781 218.255 31.382 217.76 30.2491C217.279 29.1163 217.038 27.9054 217.038 26.6163V20.4054H214.44V15.0929H217.038V6.73352H222.35V15.0929H230.436V20.4054H222.35V26.6163C222.35 27.1762 222.454 27.7036 222.663 28.1984C222.871 28.6801 223.157 29.1033 223.522 29.4679C223.887 29.8325 224.316 30.1254 224.811 30.3468C225.306 30.5551 225.833 30.6593 226.393 30.6593H230.436V35.9718H226.393ZM242.564 30.8546C242.773 30.9197 242.981 30.9653 243.189 30.9913C243.398 31.0044 243.606 31.0109 243.814 31.0109C244.335 31.0109 244.836 30.9392 245.318 30.796C245.8 30.6528 246.249 30.451 246.666 30.1906C247.096 29.9171 247.473 29.5916 247.799 29.214C248.137 28.8234 248.411 28.3937 248.619 27.9249L252.525 31.8507C252.03 32.5538 251.457 33.1853 250.806 33.7452C250.168 34.3051 249.472 34.7804 248.717 35.171C247.974 35.5616 247.187 35.8546 246.353 36.0499C245.533 36.2583 244.687 36.3624 243.814 36.3624C242.343 36.3624 240.956 36.089 239.654 35.5421C238.365 34.9952 237.232 34.2335 236.256 33.257C235.292 32.2804 234.53 31.1215 233.971 29.7804C233.411 28.4262 233.131 26.9419 233.131 25.3273C233.131 23.6736 233.411 22.1632 233.971 20.796C234.53 19.4288 235.292 18.2635 236.256 17.2999C237.232 16.3364 238.365 15.5877 239.654 15.0538C240.956 14.52 242.343 14.2531 243.814 14.2531C244.687 14.2531 245.54 14.3572 246.373 14.5656C247.206 14.7739 247.994 15.0734 248.736 15.464C249.491 15.8546 250.194 16.3364 250.846 16.9093C251.497 17.4692 252.069 18.1007 252.564 18.8038L242.564 30.8546ZM245.299 19.8585C245.051 19.7674 244.804 19.7088 244.556 19.6827C244.322 19.6567 244.075 19.6437 243.814 19.6437C243.085 19.6437 242.395 19.7804 241.744 20.0538C241.106 20.3142 240.546 20.6919 240.064 21.1866C239.596 21.6814 239.224 22.2804 238.951 22.9835C238.678 23.6736 238.541 24.4549 238.541 25.3273C238.541 25.5226 238.547 25.7439 238.56 25.9913C238.586 26.2387 238.619 26.4926 238.658 26.7531C238.71 27.0004 238.769 27.2413 238.834 27.4757C238.899 27.7101 238.984 27.9184 239.088 28.1007L245.299 19.8585ZM267.544 35.9718H255.356V30.6593H267.544C267.909 30.6593 268.221 30.5291 268.481 30.2687C268.742 30.0083 268.872 29.6958 268.872 29.3312C268.872 28.9536 268.742 28.7062 268.481 28.589C268.221 28.4718 267.909 28.4132 267.544 28.4132H261.997C261.073 28.4132 260.207 28.2374 259.399 27.8859C258.592 27.5343 257.889 27.059 257.29 26.4601C256.691 25.8481 256.216 25.1385 255.864 24.3312C255.526 23.5239 255.356 22.658 255.356 21.7335C255.356 20.809 255.526 19.9432 255.864 19.1359C256.216 18.3286 256.691 17.6254 257.29 17.0265C257.889 16.4275 258.592 15.9588 259.399 15.6202C260.207 15.2687 261.073 15.0929 261.997 15.0929H272.798V20.4054H261.997C261.632 20.4054 261.32 20.5356 261.06 20.796C260.799 21.0564 260.669 21.3689 260.669 21.7335C260.669 22.1111 260.799 22.4366 261.06 22.7101C261.32 22.9705 261.632 23.1007 261.997 23.1007H267.544C268.455 23.1007 269.315 23.257 270.122 23.5695C270.929 23.8689 271.632 24.2921 272.231 24.839C272.83 25.3859 273.306 26.0434 273.657 26.8116C274.009 27.5799 274.185 28.4197 274.185 29.3312C274.185 30.2557 274.009 31.1215 273.657 31.9288C273.306 32.7231 272.83 33.4262 272.231 34.0382C271.632 34.6372 270.929 35.1124 270.122 35.464C269.315 35.8025 268.455 35.9718 267.544 35.9718ZM288.324 35.9718C287.035 35.9718 285.824 35.7309 284.692 35.2491C283.559 34.7544 282.563 34.0838 281.703 33.2374C280.857 32.3781 280.186 31.382 279.692 30.2491C279.21 29.1163 278.969 27.9054 278.969 26.6163V20.4054H276.371V15.0929H278.969V6.73352H284.281V15.0929H292.367V20.4054H284.281V26.6163C284.281 27.1762 284.386 27.7036 284.594 28.1984C284.802 28.6801 285.089 29.1033 285.453 29.4679C285.818 29.8325 286.248 30.1254 286.742 30.3468C287.237 30.5551 287.765 30.6593 288.324 30.6593H292.367V35.9718H288.324Z" fill="#A52B60"/>
</svg>
