<svg width="23" height="23" viewBox="0 0 23 23" fill="none" xmlns="http://www.w3.org/2000/svg">
<mask id="mask0_86_92" style="mask-type:alpha" maskUnits="userSpaceOnUse" x="0" y="0" width="23" height="23">
<path fill-rule="evenodd" clip-rule="evenodd" d="M0 9.67248V13.3275H2.95555C3.17713 14.3672 3.58767 15.3573 4.16674 16.2487L2.07602 18.3395L4.66053 20.924L6.75126 18.8332C7.64268 19.4123 8.63283 19.8228 9.67248 20.0444V23H13.3275V20.0444C14.3672 19.8228 15.3573 19.4123 16.2487 18.8332L18.3392 20.924L20.924 18.3395L18.8333 16.2487C19.4123 15.3573 19.8229 14.3672 20.0445 13.3275H23V9.67248H20.0445C19.8229 8.63283 19.4123 7.64268 18.8333 6.75126L20.924 4.66075L18.3395 2.07624L16.249 4.16701C15.3575 3.58782 14.3673 3.17721 13.3275 2.95559V0H9.67248V2.95559C8.63283 3.17715 7.64268 3.58767 6.75126 4.16674L4.66053 2.07602L2.07602 4.66053L4.16674 6.75103C3.58764 7.64253 3.17711 8.63275 2.95555 9.67248H0ZM11.5 5.0814C12.7695 5.0814 14.0105 5.45784 15.066 6.16313C16.1215 6.86841 16.9442 7.87086 17.43 9.04371C17.9158 10.2166 18.0429 11.5071 17.7953 12.7522C17.5476 13.9973 16.9363 15.141 16.0386 16.0386C15.141 16.9363 13.9973 17.5476 12.7522 17.7953C11.5071 18.0429 10.2166 17.9158 9.04371 17.43C7.87086 16.9442 6.86841 16.1215 6.16313 15.066C5.45784 14.0105 5.0814 12.7695 5.0814 11.5C5.0814 9.79768 5.75764 8.16508 6.96136 6.96136C8.16508 5.75764 9.79768 5.0814 11.5 5.0814Z" fill="black"/>
</mask>
<g mask="url(#mask0_86_92)">
<path fill-rule="evenodd" clip-rule="evenodd" d="M0 9.67248V13.3275H2.95555C3.17713 14.3672 3.58767 15.3573 4.16674 16.2487L2.07602 18.3395L4.66053 20.924L6.75126 18.8332C7.64268 19.4123 8.63283 19.8228 9.67248 20.0444V23H13.3275V20.0444C14.3672 19.8228 15.3573 19.4123 16.2487 18.8332L18.3392 20.924L20.924 18.3395L18.8333 16.2487C19.4123 15.3573 19.8229 14.3672 20.0445 13.3275H23V9.67248H20.0445C19.8229 8.63283 19.4123 7.64268 18.8333 6.75126L20.924 4.66075L18.3395 2.07624L16.249 4.16701C15.3575 3.58782 14.3673 3.17721 13.3275 2.95559V0H9.67248V2.95559C8.63283 3.17715 7.64268 3.58767 6.75126 4.16674L4.66053 2.07602L2.07602 4.66053L4.16674 6.75103C3.58764 7.64253 3.17711 8.63275 2.95555 9.67248H0ZM11.5 5.0814C12.7695 5.0814 14.0105 5.45784 15.066 6.16313C16.1215 6.86841 16.9442 7.87086 17.43 9.04371C17.9158 10.2166 18.0429 11.5071 17.7953 12.7522C17.5476 13.9973 16.9363 15.141 16.0386 16.0386C15.141 16.9363 13.9973 17.5476 12.7522 17.7953C11.5071 18.0429 10.2166 17.9158 9.04371 17.43C7.87086 16.9442 6.86841 16.1215 6.16313 15.066C5.45784 14.0105 5.0814 12.7695 5.0814 11.5C5.0814 9.79768 5.75764 8.16508 6.96136 6.96136C8.16508 5.75764 9.79768 5.0814 11.5 5.0814Z" fill="#0094FF"/>
</g>
</svg>
